<svg id="N" xmlns="http://www.w3.org/2000/svg" viewBox="0 0 841.89 595.28">
  <defs>
    <style>.cls-1{fill:#231f20;}</style>
  </defs>
  <title>N</title>
  <path id="Bottom" class="cls-1" d="M205.73,303c-46,96.62-62.58,174.84-36.26,193.68,24.95,17.84,87.77-18.09,103.13-26.88,10.27-5.87,44.24-25.3,40.75-37.94-3.38-12.22-37.54-2.88-64.67-18.93C229.56,401.62,208.61,374.54,205.73,303Z"/>
  <path id="Top" class="cls-1" d="M225.28,240.81c87.22,70.49,146.23,135.59,185,183.85,26.8,33.35,42,56.19,65.8,56.09,47.07-.2,72.06-89.61,135-203.54C642,221.19,687.27,150,753.29,72.86a575,575,0,0,0-135.9,87.73C536.39,230.9,492.73,308.9,470.29,358a496.53,496.53,0,0,0-245-117.2Z"/>
</svg>
